# xmcd CD database file
#
# Track frame offsets:
#	150
#	18391
#	37077
#	61053
#	74226
#	94417
#	107860
#	127532
#	155392
#	171130
#	182795
#	195743
#	213418
#	228468
#	229360
#	230167
#	230942
#	231989
#	250634
#	263949
#	266910
#	273611
#
# Disc length: 3689 seconds
#
# Revision: 0
# Processed by: cddbd v1.5.1PL0 Copyright (c) Steve Scherf et al.
# Submitted via: CDex 1.51
#
DISCID=500e6716
DTITLE=Various Artist - The Record Breaker
DYEAR=1997
DGENRE=Jazz
TTITLE0=Dino Express
TTITLE1=F50 So Amazing
TTITLE2=F355 Challenger Funk
TTITLE3=Happy Face (Spider Mix)
TTITLE4=Love Fusion
TTITLE5=Can't Hurry Love
TTITLE6=Jamaica V
TTITLE7=When I Fall In Love
TTITLE8=Feel Like Making Love
TTITLE9=I'll Never Fall In Love
TTITLE10=Expose Blues
TTITLE11=Fever
TTITLE12=I'll Get A Kick
TTITLE13=Dono Frankhurt Highway Passby 1
TTITLE14=Dono Frankhurt Highway Passby 2
TTITLE15=Dono Frankhurt Highway Long Passby
TTITLE16=Dono Frankhurt Highway Pass Overhead
TTITLE17=Dono Frankhurt 260km Racing (Cockpit)
TTITLE18=Dino Door Open and Engine Initiate (Garage)
TTITLE19=F355 Spider H.K. Road Tracing (Cockpit)
TTITLE20=F355 Challenger Engine (3m From Exhault Pipe)
TTITLE21=F50 Engine (5m Above Rear Engine)
EXTD=YEAR: 1997
EXTT0=
EXTT1=
EXTT2=
EXTT3=
EXTT4=
EXTT5=
EXTT6=
EXTT7=
EXTT8=
EXTT9=
EXTT10=
EXTT11=
EXTT12=
EXTT13=
EXTT14=
EXTT15=
EXTT16=
EXTT17=
EXTT18=
EXTT19=
EXTT20=
EXTT21=
PLAYORDER=
